<svg style="enable-background:new 0 0 32 32;" version="1.1"
     viewBox="0 0 32 32" x="0px" xml:space="preserve" xmlns="http://www.w3.org/2000/svg" y="0px">
    <switch>
	<g>
        <ellipse cx="10.9" cy="23.9" rx="4.5" ry="4.3"/>
        <ellipse cx="25.2" cy="9.9" rx="3.3" ry="3.2"/>
        <ellipse cx="9.4" cy="8" rx="3.5" ry="3.4"/>
        <ellipse cx="23.3" cy="22.5" rx="2.8" ry="2.7"/>
        <g>
			<path d="M10,25.4"/>
            <g>
				<path d="M10,25.7c0.4,0,0.4-0.6,0-0.6S9.6,25.7,10,25.7L10,25.7z"/>
			</g>
		</g>
        <ellipse cx="4.6" cy="13.9" rx="1.8" ry="1.7"/>
        <ellipse cx="16.7" cy="16.6" rx="2.2" ry="2.1"/>
        <g>
			<g>
				<path d="M9.5,11.2c0,3.5,0,7,0,10.5c0,0.4,0.7,0.4,0.7,0c0-3.5,0-7,0-10.5C10.2,10.8,9.5,10.8,9.5,11.2L9.5,11.2z"
                />
			</g>
		</g>
        <g>
			<g>
				<path d="M11.7,8.8c3.9,0.6,7.8,1.2,11.6,1.7c1.1,0.2,2.2,0.3,3.3,0.5c0.4,0.1,0.6-0.5,0.2-0.6
					C23,9.8,19.1,9.2,15.2,8.7c-1.1-0.2-2.2-0.3-3.3-0.5C11.5,8.1,11.3,8.7,11.7,8.8L11.7,8.8z"/>
			</g>
		</g>
        <g>
			<g>
				<path d="M17.6,16.1c1.8-1.8,4.2-2.9,5.9-4.8c0.3-0.3-0.2-0.7-0.5-0.4c-1.8,1.8-4.2,2.9-5.9,4.8
					C16.9,15.9,17.4,16.4,17.6,16.1L17.6,16.1z"/>
			</g>
		</g>
        <g>
			<g>
				<path d="M17.6,17.8c1.4,1.2,2.8,2.6,4,4.1c0.1,0.1,0.3,0.1,0.5,0c0.1-0.1,0.1-0.3,0-0.4c-1.2-1.5-2.5-2.8-4-4.1
					C17.8,17.1,17.3,17.6,17.6,17.8L17.6,17.8z"/>
			</g>
		</g>
        <g>
			<g>
				<path d="M5.7,14.5c3.1,0.5,6.1,1.1,9.2,1.8c0.4,0.1,0.6-0.5,0.2-0.6C12,15,9,14.4,5.9,13.8
					C5.5,13.8,5.3,14.4,5.7,14.5L5.7,14.5z"/>
			</g>
		</g>
	</g>
</switch>
</svg>